<?xml version="1.0" encoding="UTF-8" standalone="no"?>
<!-- Created with Inkscape (http://www.inkscape.org/) -->

<svg
   width="128"
   height="64"
   viewBox="0 0 128 64"
   version="1.1"
   id="svg1"
   xml:space="preserve"
   inkscape:version="1.4.2 (f4327f4, 2025-05-13)"
   sodipodi:docname="locomotive.svg"
   xmlns:inkscape="http://www.inkscape.org/namespaces/inkscape"
   xmlns:sodipodi="http://sodipodi.sourceforge.net/DTD/sodipodi-0.dtd"
   xmlns="http://www.w3.org/2000/svg"
   xmlns:svg="http://www.w3.org/2000/svg"><sodipodi:namedview
     id="namedview1"
     pagecolor="#ffffff"
     bordercolor="#000000"
     borderopacity="0.25"
     inkscape:showpageshadow="2"
     inkscape:pageopacity="0.0"
     inkscape:pagecheckerboard="0"
     inkscape:deskcolor="#d1d1d1"
     inkscape:document-units="px"
     showgrid="true"
     inkscape:zoom="5.6568543"
     inkscape:cx="98.729784"
     inkscape:cy="34.294679"
     inkscape:window-width="2285"
     inkscape:window-height="1210"
     inkscape:window-x="1483"
     inkscape:window-y="767"
     inkscape:window-maximized="0"
     inkscape:current-layer="layer1"><inkscape:grid
       id="grid1"
       units="px"
       originx="0"
       originy="0"
       spacingx="1"
       spacingy="1"
       empcolor="#0099e5"
       empopacity="0.30196078"
       color="#0099e5"
       opacity="0.14901961"
       empspacing="8"
       enabled="true"
       visible="true" /></sodipodi:namedview><defs
     id="defs1" /><g
     inkscape:label="Taso 1"
     inkscape:groupmode="layer"
     id="layer1"><path
       style="fill:#af9422;stroke:#000000;stroke-width:4;stroke-dasharray:none"
       d="M 2,48 V 40"
       id="path3-1" /><path
       style="fill:#af9422;stroke:#000000;stroke-width:4;stroke-dasharray:none"
       d="M 126,48 V 40"
       id="path3" /><path
       id="path1-1-8"
       style="fill:#bbbbbb;fill-opacity:1;stroke:#000000;stroke-width:2;stroke-dasharray:none;stroke-opacity:1"
       d="M 24,4 C 12,4 4,16 4.000005,28 l 5e-6,24 h 4 c 0,4.418278 3.581722,8 8,8 4.418278,0 8,-3.581722 8,-8 h 4 c 0,4.418278 3.581722,8 8,8 4.418278,0 8,-3.581722 8,-8 h 40 c 0,4.418278 3.581722,8 8,8 4.418278,0 8,-3.581722 8,-8 H 104 c 0,4.418278 3.58172,8 8,8 4.41828,0 8,-3.581722 8,-8 h 4 V 28 C 124,16 116,4 104,4 Z"
       sodipodi:nodetypes="ccccsccsccsccsccccc" /></g></svg>
